# xmcd CD database file
#
# Track frame offsets:
#	150
#	46670
#	88837
#	95405
#	143037
#	146932
#	189657
#	204685
#	240447
#
# Disc length: 3624 seconds
#
# Revision: 0
# Processed by: cddbd v1.5.1PL0 Copyright (c) Steve Scherf et al.
# Submitted via: CDex 1.51
#
DISCID=7e0e2609
DTITLE=大西順子 - Piano Quintet Suite
DYEAR=1995
DGENRE=Jazz
TTITLE0=Piano Quintet Suite
TTITLE1=Peggie's Blue Skylight
TTITLE2=Interlude 1
TTITLE3=Naturally
TTITLE4=Interlude 2
TTITLE5=The Tropic Of Capricorn
TTITLE6=Tony
TTITLE7=Orange Was The Color Of Her Dress, Then Blue Silk
TTITLE8=Take The A Train
EXTD=YEAR: 1995
EXTT0=
EXTT1=
EXTT2=
EXTT3=
EXTT4=
EXTT5=
EXTT6=
EXTT7=
EXTT8=
PLAYORDER=
